PathFileType	4	(X/Y/Z)	C:/Users/opensim2020/Desktop/walking_exp_matlab/subject02_walking11_straight_02.trc	
DataRate	CameraRate	NumFrames	NumMarkers	Units	OrigDataRate	OrigDataStartFrame	OrigNumFrames	
100.00	100.00	8	42	mm	100.00	1634	230	
Frame#	Time	LFHD			RFHD			LBHD			RBHD			C7			T10			CLAV			STRN			RBAK			LSHO			LUPA			LELB			LFRM			LWRA			LWRB			LFIN			RSHO			RUPA			RELB			RFRM			RWRA			RWRB			RFIN			LASI			RASI			LPSI			RPSI			LTHI			LKNE			LTIB			LANK			LHEE			LTOE			RTHI			RKNE			RTIB			RANK			RHEE			RTOE			*39			*40			*41			
		X1	Y1	Z1	X2	Y2	Z2	X3	Y3	Z3	X4	Y4	Z4	X5	Y5	Z5	X6	Y6	Z6	X7	Y7	Z7	X8	Y8	Z8	X9	Y9	Z9	X10	Y10	Z10	X11	Y11	Z11	X12	Y12	Z12	X13	Y13	Z13	X14	Y14	Z14	X15	Y15	Z15	X16	Y16	Z16	X17	Y17	Z17	X18	Y18	Z18	X19	Y19	Z19	X20	Y20	Z20	X21	Y21	Z21	X22	Y22	Z22	X23	Y23	Z23	X24	Y24	Z24	X25	Y25	Z25	X26	Y26	Z26	X27	Y27	Z27	X28	Y28	Z28	X29	Y29	Z29	X30	Y30	Z30	X31	Y31	Z31	X32	Y32	Z32	X33	Y33	Z33	X34	Y34	Z34	X35	Y35	Z35	X36	Y36	Z36	X37	Y37	Z37	X38	Y38	Z38	X39	Y39	Z39	X40	Y40	Z40	X41	Y41	Z41	X42	Y42	Z42	

1	0.000	-889.96265	874.79407	1733.95801	-1034.53345	882.97241	1730.71216	-881.87189	1006.36121	1661.42822	-1024.33606	1027.24951	1656.79736	-966.57672	1067.42175	1526.55188	-974.11688	1116.43286	1249.57629	-964.34369	926.52985	1460.08887	-990.06946	871.62256	1291.93115	-1034.61328	1126.84741	1353.80542	-791.59998	992.74304	1491.05591	-712.44708	1018.33795	1290.29004	-702.36444	1034.94397	1152.43738	-682.68915	1042.29822	1023.08551	-700.29028	999.08765	889.34912	-672.67181	1047.96851	900.41327	-664.12042	1039.69812	834.42328	-1156.78101	1000.87720	1505.51294	-1247.09387	1017.36792	1314.06116	-1270.87341	985.68677	1170.24158	-1289.55029	926.30334	1064.37329	-1267.15442	845.46637	956.36627	-1301.62036	887.66040	940.45471	-1301.34387	833.89471	890.74927	-868.72748	850.63562	1002.45313	-1117.88904	897.74823	973.08514	-910.82910	1074.25220	1034.60095	-1024.94861	1098.35046	1031.58752	-810.16949	867.67822	690.02106	-843.01862	882.50000	485.48959	-840.82892	924.33362	293.67575	-885.06842	913.83575	74.53392	-934.59662	953.14264	46.65160	-887.32263	756.52344	39.52217	-1186.79907	1037.23828	677.58398	-1185.73132	1060.27222	476.27814	-1168.38843	1200.51379	356.37265	-1118.42639	1322.13074	213.02681	-1046.08740	1357.59729	193.45143	-1155.43115	1278.99805	58.37801	-966.69037	978.88788	1810.75183	-3360.30225	2845.16699	1034.26013			 
2	0.010	-889.07825	867.99689	1735.56909	-1033.71436	876.12091	1732.21411	-881.00360	999.01984	1662.06042	-1023.47504	1019.82190	1657.19604	-965.59839	1059.37402	1527.31714	-972.15857	1108.38110	1250.46973	-963.46399	918.53375	1460.87598	-988.85541	863.79602	1292.49927	-1032.96631	1118.82593	1354.50745	-790.66101	984.72595	1492.14893	-711.00031	1008.62683	1291.03662	-700.76294	1023.59479	1153.09497	-681.66296	1028.36938	1023.18115	-700.28412	983.09778	890.66278	-672.20990	1031.97339	900.63818	-663.99878	1021.97308	834.64209	-1155.94849	993.09509	1505.87537	-1245.41394	1010.43512	1314.07642	-1268.77576	979.35553	1170.05688	-1287.43298	920.97650	1063.70996	-1265.73840	840.74518	955.16742	-1299.77563	883.43872	939.51776	-1299.61108	830.26306	889.09753	-867.51837	843.39453	1001.60895	-1116.88281	890.89850	973.70837	-908.76184	1066.36340	1035.75354	-1022.66626	1091.53699	1032.63098	-809.07178	864.55786	689.67108	-842.00757	880.25757	485.24152	-840.20032	923.40247	293.63690	-885.01416	913.91644	74.43681	-934.42426	953.10919	46.53547	-887.34149	756.60254	39.49801	-1187.54468	1025.32263	677.55292	-1187.72083	1044.49915	476.36633	-1169.61194	1185.69458	358.34256	-1118.13379	1309.00073	216.93120	-1045.89893	1343.98291	196.86429	-1158.36646	1267.32007	62.77488	-965.82281	972.64465	1811.57312	-3357.28906	2845.80347	1034.29919			 
3	0.020	-888.35242	861.05927	1737.21741	-1032.85242	869.32312	1733.70129	-880.25562	991.64795	1662.57288	-1022.72058	1012.45471	1657.52759	-964.68097	1051.36047	1528.07507	-970.05920	1100.45776	1251.42883	-962.55060	910.57202	1461.54919	-987.32275	856.14972	1292.74109	-1031.27380	1110.87585	1355.27661	-789.83307	976.57343	1493.11938	-709.71667	998.81250	1291.82849	-699.43408	1012.03583	1153.33801	-680.81396	1014.62964	1023.56244	-700.38348	967.00635	891.95636	-671.92554	1015.62262	900.78278	-664.04895	1004.18506	835.11688	-1155.17053	985.36652	1506.15613	-1243.80286	1003.50049	1314.05396	-1266.90759	973.09607	1169.97607	-1286.00610	915.70605	1063.23547	-1264.35278	836.24799	953.86121	-1298.01953	879.34460	938.51605	-1298.16663	826.65143	887.42786	-866.60712	836.27075	1000.65833	-1116.43970	884.73322	974.32227	-907.12982	1059.40369	1037.09998	-1020.38568	1084.91431	1033.43237	-807.94403	861.63074	689.50336	-841.04871	878.25842	485.06866	-839.52759	922.11438	293.73840	-884.94025	914.01288	74.36836	-934.46509	953.42035	46.63006	-887.38422	756.64471	39.47272	-1188.25183	1013.12219	677.66382	-1189.56238	1028.81152	476.86008	-1170.27148	1170.85999	360.56354	-1117.48547	1295.02698	220.20795	-1045.03235	1329.62036	198.79079	-1161.40466	1253.64893	67.18550	-965.37091	966.37183	1812.28589	-3360.48706	2845.31787	1034.16797			 
4	0.030	-888.20123	853.35107	1738.65027	-1032.25000	862.53583	1735.02112	-879.46692	984.32880	1663.24316	-1022.01477	1005.04260	1657.76123	-963.79480	1043.34570	1528.87683	-968.16669	1092.66040	1252.39990	-961.78857	902.66748	1462.17920	-986.33630	848.53033	1293.10571	-1029.56519	1103.03918	1355.94934	-788.91223	968.42120	1494.21936	-708.35315	989.08905	1292.80212	-697.82324	1000.67572	1154.07739	-680.13776	1000.37402	1023.81189	-700.55072	950.86090	893.42657	-671.76978	999.00513	901.06610	-664.19550	985.79346	835.71173	-1154.33020	977.70251	1506.45007	-1242.42029	996.68658	1314.06860	-1265.09082	966.84546	1169.85291	-1284.32727	910.54828	1062.59863	-1262.93420	832.09009	952.42548	-1296.28210	875.40961	937.48303	-1296.99622	823.30957	886.04773	-865.75171	829.25146	999.71680	-1116.08508	878.47736	974.83807	-905.37299	1052.34753	1038.13672	-1018.21979	1078.45117	1034.09900	-806.85486	858.55444	689.12976	-840.19226	876.45410	484.88852	-838.82233	921.27728	293.68839	-884.91052	914.04724	74.32042	-934.17462	953.28119	46.41223	-887.38220	756.72772	39.44991	-1189.52405	1001.14532	678.27777	-1191.08923	1013.21484	477.58820	-1170.37488	1155.73584	362.51489	-1116.88806	1280.22144	222.53210	-1044.52356	1314.26331	199.56271	-1164.38672	1238.68335	70.72545	-964.61761	960.13684	1812.98071	-3357.63184	2845.99536	1034.34241			 
5	0.040	-887.40692	846.74261	1740.13220	-1031.81433	855.74384	1736.28943	-878.90228	976.77869	1663.83276	-1021.40845	997.67645	1658.03333	-962.97394	1035.39148	1529.68994	-966.30334	1084.93896	1253.36060	-961.03638	894.82959	1462.72290	-985.38745	841.06708	1293.32349	-1027.94458	1095.34546	1356.72510	-788.07422	960.14172	1495.35730	-707.28271	979.06531	1293.59387	-696.30707	989.08905	1154.69958	-679.21582	985.96661	1024.19189	-701.02173	934.18170	895.04706	-671.82928	982.06805	901.49121	-664.30975	967.10175	836.65491	-1153.55859	969.91791	1506.60071	-1240.66809	989.80658	1313.94592	-1263.31079	960.66095	1169.67065	-1282.92664	905.46338	1061.99365	-1262.10547	827.57367	951.22577	-1294.73804	871.53967	936.48792	-1295.69812	819.94696	884.56116	-864.92078	822.50781	998.77136	-1115.85242	872.33667	975.30981	-903.86157	1045.54065	1039.18298	-1016.25507	1072.12781	1034.66455	-806.09015	854.99060	688.78162	-839.39691	874.71924	484.71075	-838.27051	920.26801	293.80142	-884.84253	914.07245	74.32249	-934.33990	953.59113	46.60888	-887.48834	756.71741	39.35161	-1190.46057	988.85400	678.84515	-1192.41162	997.64667	478.44363	-1170.24744	1140.62134	364.10855	-1116.51648	1264.65112	223.94646	-1043.92480	1298.22876	199.47702	-1167.47546	1222.56702	73.94769	-964.10779	953.82495	1813.50403	-3357.33691	2845.85352	1034.22424			 
6	0.050	-887.12085	840.41394	1741.37476	-1031.65491	848.85016	1737.38916	-878.32050	969.40570	1664.30737	-1020.86322	990.32281	1658.22058	-962.15863	1027.43042	1530.45361	-964.55774	1077.43848	1254.39600	-960.27045	886.99988	1463.23767	-984.43909	833.74799	1293.48438	-1026.39783	1087.72327	1357.52502	-787.21497	951.87878	1496.55603	-705.99121	969.28601	1294.68811	-694.93079	977.31067	1155.32190	-678.54572	971.67767	1024.70117	-701.93988	917.22986	896.78442	-671.95026	964.96881	902.06378	-664.85040	948.18433	837.68207	-1152.83899	962.11072	1506.72498	-1239.23071	982.95410	1313.93970	-1261.75159	954.59369	1169.57947	-1281.26025	900.42102	1061.27808	-1260.98376	823.44373	949.91833	-1293.19287	867.82330	935.51453	-1294.68701	816.71222	883.21680	-864.10217	815.97394	997.95941	-1115.73962	866.14410	975.89783	-902.53894	1038.97937	1040.14441	-1014.53003	1065.91687	1035.23157	-805.22211	851.45734	688.56128	-838.59741	873.27118	484.63315	-838.02979	919.50043	293.92538	-884.88562	914.18018	74.27831	-934.13672	953.47693	46.43098	-887.25415	756.85443	39.38181	-1191.44470	976.71576	679.59479	-1193.43726	982.33801	479.45142	-1170.27063	1124.88098	365.26892	-1116.32959	1248.61621	224.57387	-1043.69751	1281.63916	198.51830	-1170.51855	1205.39832	76.45105	-963.83960	947.46368	1814.15796	-3360.33252	2845.07300	1034.21130			 
7	0.060	-886.82434	832.89728	1742.73523	-1031.48596	842.03400	1738.44409	-877.91705	961.98645	1664.80408	-1020.41840	983.01489	1658.37915	-961.44690	1019.49994	1531.26746	-962.90167	1070.08667	1255.42444	-959.63104	879.23389	1463.68481	-983.47406	826.52698	1293.42883	-1025.00195	1080.15259	1358.38025	-786.48425	943.47675	1497.68970	-704.93512	959.33960	1295.68030	-693.34955	965.55273	1155.97998	-678.11328	956.76349	1025.33887	-702.88281	900.14539	898.73590	-672.23999	947.78802	902.90802	-665.41217	929.13855	839.01404	-1152.21033	954.19531	1506.80688	-1238.23877	976.02014	1314.03662	-1260.12146	948.59253	1169.41406	-1279.84265	895.55438	1060.63647	-1260.13843	819.40216	948.73907	-1292.09363	864.05823	934.72461	-1293.86267	813.46661	882.04150	-863.23560	809.60870	997.44611	-1115.59473	859.99792	976.47345	-901.47089	1032.63318	1041.03308	-1013.08221	1059.60449	1035.80847	-804.21625	848.02399	688.22809	-837.86816	871.84674	484.54004	-837.81683	919.30139	294.07550	-884.93506	914.25604	74.29320	-934.17419	953.51184	46.34664	-887.17371	756.91370	39.37868	-1192.33630	964.60077	680.50458	-1194.36243	967.24304	480.47043	-1170.22827	1109.14136	365.82910	-1116.20178	1231.84375	224.11501	-1043.64368	1264.57703	196.57027	-1173.35327	1186.99609	78.27138	-963.80835	941.04419	1814.59253	-3357.31323	2845.96045	1034.23694			 
8	0.070	-886.86261	826.00769	1743.89929	-1031.42383	835.24866	1739.36499	-877.60132	954.53168	1665.23499	-1020.08594	975.68494	1658.49329	-960.77716	1011.63690	1532.07275	-961.30151	1062.86084	1256.42908	-959.10199	871.48669	1464.11035	-982.58795	819.36615	1293.53210	-1023.73010	1072.75122	1359.20618	-785.81512	935.09845	1498.82764	-703.92560	949.30029	1296.70020	-692.57452	953.23480	1156.80249	-677.41699	941.96625	1026.11377	-703.87292	883.19861	901.17065	-672.70380	930.14850	903.71088	-666.18182	909.98596	840.61188	-1151.53479	946.39471	1507.04565	-1236.82849	969.10126	1314.03589	-1258.75940	942.81067	1169.32642	-1278.79272	890.82043	1060.22888	-1259.21191	815.46600	947.54346	-1290.87024	860.46136	933.93903	-1293.10864	810.32776	880.87207	-862.20288	803.47174	997.17755	-1115.43542	853.78778	977.12628	-900.65466	1026.44861	1041.82251	-1012.04291	1053.25671	1036.39429	-803.37134	844.75653	687.72150	-837.32422	870.54694	484.43698	-837.67987	919.35730	294.21667	-885.02997	914.35052	74.29804	-934.08374	953.62042	46.49308	-887.12439	756.97577	39.34169	-1193.24585	952.70441	681.47882	-1194.94421	952.26599	481.37381	-1170.35742	1093.32813	365.87653	-1116.26843	1214.56812	222.93253	-1043.86328	1247.01636	193.73396	-1175.79834	1167.37451	79.29934	-963.72028	934.56396	1815.04395	-3357.35547	2845.92554	1034.27368			 
